<?xml version="1.0" encoding="utf-8"?>
<!-- Generator: Adobe Illustrator 16.0.0, SVG Export Plug-In . SVG Version: 6.00 Build 0)  -->
<!DOCTYPE svg PUBLIC "-//W3C//DTD SVG 1.1//EN" "http://www.w3.org/Graphics/SVG/1.1/DTD/svg11.dtd">
<svg version="1.1" id="Capa_1" xmlns="http://www.w3.org/2000/svg" xmlns:xlink="http://www.w3.org/1999/xlink" x="0px" y="0px"
	 width="25.004px" height="23.006px" viewBox="0 0 25.004 23.006" enable-background="new 0 0 25.004 23.006" xml:space="preserve">
<path d="M24.851,4.374c-0.151-0.202-0.392-0.321-0.647-0.321H6.151c-0.035,0-0.07,0.001-0.104,0.006L5.305,1.965
	C5.228,1.749,5.058,1.576,4.84,1.492L1.096,0.055c-0.413-0.158-0.878,0.04-1.041,0.442C-0.106,0.9,0.097,1.355,0.509,1.515
	l3.4,1.306L8.072,14.55c-0.184,0.063-0.34,0.2-0.411,0.393l-1.204,3.269c-0.074,0.201-0.043,0.423,0.083,0.599
	c0.125,0.174,0.329,0.276,0.546,0.276h0.618c-0.383,0.417-0.618,0.966-0.618,1.567c0,1.299,1.08,2.354,2.407,2.354
	c1.327,0,2.407-1.056,2.407-2.354c0-0.603-0.235-1.15-0.618-1.567h5.248c-0.383,0.417-0.617,0.966-0.617,1.567
	c0,1.299,1.08,2.354,2.406,2.354c1.327,0,2.407-1.056,2.407-2.354c0-0.603-0.235-1.15-0.618-1.567h0.751
	c0.37,0,0.668-0.293,0.668-0.653s-0.299-0.652-0.668-0.652H8.039l0.745-2.024c0.096,0.04,0.2,0.063,0.309,0.063H20.86
	c0.35,0,0.658-0.221,0.764-0.545l3.344-10.195C25.045,4.837,25.002,4.576,24.851,4.374z M9.494,21.698
	c-0.59,0-1.07-0.469-1.07-1.047c0-0.575,0.48-1.045,1.07-1.045c0.59,0,1.07,0.47,1.07,1.045
	C10.564,21.229,10.084,21.698,9.494,21.698z M18.319,21.698c-0.59,0-1.07-0.469-1.07-1.047c0-0.575,0.48-1.045,1.07-1.045
	s1.07,0.47,1.07,1.045C19.389,21.229,18.909,21.698,18.319,21.698z M22.524,7.385H18.43V5.621h4.673L22.524,7.385z M21.346,10.979
	h-2.915V8.954h3.579L21.346,10.979z M13.125,10.979V8.954h3.701v2.025H13.125z M16.827,12.548v1.7h-3.701v-1.7H16.827z M7.785,8.954
	h3.737v2.025H8.504L7.785,8.954z M13.125,7.385V5.621h3.701v1.764H13.125z M11.522,5.621v1.764H7.228L6.602,5.621H11.522z
	 M9.061,12.548h2.461v1.7H9.664L9.061,12.548z M18.431,14.248v-1.7h2.401l-0.558,1.7H18.431z"/>
<circle fill="#ED6C05" cx="21.41" cy="19.413" r="3.594"/>
</svg>
