<?xml version="1.0" encoding="utf-8"?>
<!-- Generator: Adobe Illustrator 16.0.0, SVG Export Plug-In . SVG Version: 6.00 Build 0)  -->
<!DOCTYPE svg PUBLIC "-//W3C//DTD SVG 1.1//EN" "http://www.w3.org/Graphics/SVG/1.1/DTD/svg11.dtd">
<svg version="1.1" id="Capa_1" xmlns="http://www.w3.org/2000/svg" xmlns:xlink="http://www.w3.org/1999/xlink" x="0px" y="0px"
	 width="25.005px" height="23.006px" viewBox="0 0 25.005 23.006" enable-background="new 0 0 25.005 23.006" xml:space="preserve">
<path d="M24.851,4.374c-0.151-0.202-0.392-0.321-0.648-0.321H6.151c-0.035,0-0.07,0.001-0.104,0.006L5.305,1.965
	C5.228,1.749,5.058,1.576,4.84,1.492L1.096,0.055c-0.413-0.158-0.878,0.04-1.041,0.442C-0.106,0.9,0.097,1.355,0.509,1.515
	l3.4,1.306l4.163,11.729c-0.184,0.062-0.34,0.2-0.411,0.393l-1.204,3.268c-0.074,0.201-0.043,0.423,0.083,0.598
	c0.125,0.174,0.329,0.277,0.546,0.277h0.618c-0.383,0.417-0.618,0.966-0.618,1.568c0,1.298,1.08,2.354,2.407,2.354
	s2.407-1.056,2.407-2.354c0-0.603-0.235-1.151-0.618-1.568h5.248c-0.383,0.417-0.618,0.966-0.618,1.568
	c0,1.298,1.08,2.354,2.407,2.354s2.407-1.056,2.407-2.354c0-0.603-0.235-1.151-0.618-1.568h0.751c0.37,0,0.668-0.293,0.668-0.653
	c0-0.361-0.299-0.653-0.668-0.653H8.039l0.745-2.024c0.096,0.04,0.2,0.063,0.309,0.063H20.86c0.349,0,0.658-0.221,0.764-0.545
	l3.343-10.195C25.045,4.837,25.002,4.576,24.851,4.374z M9.494,21.698c-0.59,0-1.07-0.469-1.07-1.046c0-0.576,0.48-1.046,1.07-1.046
	s1.07,0.47,1.07,1.046C10.564,21.229,10.084,21.698,9.494,21.698z M18.319,21.698c-0.59,0-1.07-0.469-1.07-1.046
	c0-0.576,0.48-1.046,1.07-1.046s1.07,0.47,1.07,1.046C19.389,21.229,18.909,21.698,18.319,21.698z M22.524,7.385h-4.094V5.621h4.673
	L22.524,7.385z M21.346,10.979h-2.915V8.954h3.58L21.346,10.979z M13.126,10.979V8.954h3.7v2.025H13.126z M16.826,12.548v1.7h-3.7
	v-1.7H16.826z M7.785,8.954h3.737v2.025H8.504L7.785,8.954z M13.126,7.385V5.621h3.7v1.764H13.126z M11.522,5.621v1.764H7.228
	L6.602,5.621H11.522z M9.061,12.548h2.461v1.7H9.664L9.061,12.548z M18.431,14.248v-1.7h2.401l-0.557,1.7H18.431z"/>
</svg>
