<?xml version="1.0" encoding="utf-8"?>
<!-- Generator: Adobe Illustrator 16.0.0, SVG Export Plug-In . SVG Version: 6.00 Build 0)  -->
<!DOCTYPE svg PUBLIC "-//W3C//DTD SVG 1.1//EN" "http://www.w3.org/Graphics/SVG/1.1/DTD/svg11.dtd">
<svg version="1.1" id="Layer_1" xmlns="http://www.w3.org/2000/svg" xmlns:xlink="http://www.w3.org/1999/xlink" x="0px" y="0px"
	 width="190px" height="55.052px" viewBox="0 0 190 55.052" enable-background="new 0 0 190 55.052" xml:space="preserve">
<g>
	<polygon fill-rule="evenodd" clip-rule="evenodd" fill="#ED6B06" points="46.035,0 50.327,5.693 40.604,11.526 0,11.567 
		21.023,18.296 28.533,24.41 26.522,33.968 50.059,45.003 32.408,31.373 40.775,22.184 42.865,25.684 42.929,19.818 51.922,9.943 
		61.393,8.715 	"/>
	<path fill="#1D1D1B" d="M117.774,29.268c3.291-0.514,5.075-2.948,5.075-5.76c0-4.354-3.476-6.274-8.059-6.274h-0.6h-8.412v20.391
		h6.028v-7.843h0.062l2.322,3.201l3.367,4.642h7.504L117.774,29.268z M114.191,26.239c-0.577,0.105-1.2,0.135-1.8,0.135h-0.584
		V21.29h0.584c0.6,0,1.223,0.03,1.8,0.135c1.313,0.239,2.384,0.866,2.384,2.407S115.505,26,114.191,26.239z M135.68,40.47
		l2.401-4.683l9.904-18.553h-6.552l-5.628,10.547l-5.597-10.547h-6.552l9.75,18.553L135.68,40.47z M162.686,33.136h-7.166V29.62
		h6.796v-4.49h-6.796v-3.407h7.166v-4.489h-13.194v20.391h13.194V33.136z M183.538,28.125l-17.131-14.482v23.982h6.028V25.918
		l17.132,15.154V17.234h-6.028V28.125z M186.725,16.263c1.804,0,3.275-1.472,3.275-3.277s-1.472-3.276-3.275-3.276
		c-1.806,0-3.277,1.472-3.277,3.276S184.919,16.263,186.725,16.263z M186.725,10.433c1.405,0,2.553,1.147,2.553,2.553
		c0,1.407-1.147,2.553-2.553,2.553c-1.407,0-2.554-1.146-2.554-2.553C184.171,11.58,185.317,10.433,186.725,10.433z M186.293,13.303
		h0.091c0.095,0,0.181,0.026,0.255,0.078c0.039,0.028,0.081,0.08,0.127,0.154c0.02,0.031,0.041,0.066,0.062,0.105l0.555,1.027h1.173
		l-0.503-0.974c-0.023-0.049-0.071-0.118-0.145-0.209c-0.073-0.09-0.128-0.148-0.166-0.176c-0.057-0.041-0.146-0.083-0.271-0.124
		c0.153-0.034,0.275-0.079,0.364-0.132c0.139-0.085,0.248-0.195,0.328-0.33c0.079-0.136,0.119-0.296,0.119-0.483
		c0-0.214-0.052-0.395-0.156-0.543c-0.104-0.149-0.24-0.251-0.41-0.306c-0.17-0.056-0.415-0.083-0.736-0.083h-0.214h-1.516v3.36
		h1.043V13.303z M186.293,11.985h0.455h0.018c0.18,0.002,0.304,0.031,0.37,0.088c0.069,0.058,0.104,0.141,0.104,0.25
		c0,0.074-0.021,0.139-0.065,0.195c-0.043,0.056-0.101,0.091-0.169,0.105c-0.107,0.024-0.188,0.039-0.239,0.043
		c-0.014,0.001-0.025,0.002-0.036,0.002h-0.437V11.985z M52.85,27.523l0,0.034l0,0.034c-0.091,11.555,14.016,16.254,22.54,12.484
		v-7.094c-4.251,3.994-14.793,3.415-15.015-5.375l0.002-0.049l-0.002-0.049c0.221-8.79,10.764-9.369,15.015-5.375v-7.094
		C66.865,11.269,52.758,15.968,52.85,27.523z M90.178,16.558c-6.666,0.01-12.804,4.334-12.804,10.493
		c0,6.592,5.372,11.24,12.804,11.25c7.431-0.01,12.803-4.658,12.803-11.25C102.981,20.892,96.843,16.567,90.178,16.558z
		 M90.178,33.162c-3.588-0.01-6.529-2.576-6.529-6.084c0-2.806,2.941-5.37,6.529-5.381c3.588,0.011,6.529,2.575,6.529,5.381
		C96.707,30.586,93.766,33.151,90.178,33.162z M150.956,48.284c0.017-0.063,0.031-0.127,0.043-0.191
		c0.013-0.065,0.023-0.125,0.031-0.18c0.014-0.058,0.024-0.113,0.028-0.168c0.005-0.058,0.006-0.108,0.006-0.158
		c0.009-0.081,0.009-0.16,0-0.24c-0.007-0.08-0.024-0.152-0.047-0.215c-0.016-0.058-0.039-0.115-0.067-0.174
		c-0.026-0.06-0.058-0.115-0.088-0.162l-0.01-0.015c-0.04-0.058-0.088-0.112-0.148-0.159c-0.063-0.054-0.13-0.099-0.203-0.14
		c-0.04-0.022-0.088-0.043-0.145-0.06c-0.055-0.017-0.111-0.033-0.168-0.047c-0.048-0.008-0.099-0.016-0.156-0.024
		c-0.056-0.008-0.111-0.012-0.168-0.012h-3.139h-3.041l-1.942,7.304l-0.376,1.411h0.376h2.509l0.636-2.379h1.838h1.445
		c0.063,0,0.129-0.004,0.198-0.013c0.067-0.008,0.134-0.021,0.197-0.035c0.066-0.008,0.131-0.025,0.2-0.049
		c0.067-0.024,0.137-0.047,0.211-0.072c0.046-0.025,0.096-0.049,0.149-0.078c0.051-0.029,0.103-0.058,0.149-0.091
		c0.042-0.033,0.084-0.068,0.134-0.108c0.047-0.039,0.09-0.08,0.131-0.119c0.047-0.041,0.095-0.086,0.137-0.14
		c0.046-0.051,0.087-0.107,0.128-0.162c0.039-0.055,0.08-0.117,0.119-0.18c0.041-0.063,0.078-0.124,0.108-0.181
		c0.025-0.047,0.051-0.099,0.078-0.156c0.03-0.055,0.056-0.115,0.079-0.18c0.016-0.056,0.034-0.113,0.055-0.174
		c0.021-0.06,0.038-0.122,0.054-0.187l0.556-2.073L150.956,48.284z M148.144,47.925l-0.841,3.149
		c-0.016,0.039-0.038,0.084-0.071,0.131c-0.018,0.017-0.036,0.037-0.054,0.06c-0.021,0.024-0.039,0.045-0.056,0.062
		c-0.016,0.017-0.034,0.029-0.059,0.041c-0.024,0.012-0.047,0.022-0.072,0.031c-0.008,0.008-0.024,0.015-0.049,0.019
		c-0.022,0.004-0.042,0.006-0.06,0.006h-0.158h-1.176c-0.016,0-0.037-0.002-0.062-0.006c-0.021-0.004-0.039-0.014-0.047-0.031
		c-0.016-0.008-0.034-0.019-0.054-0.031c-0.021-0.011-0.034-0.024-0.042-0.041c-0.009-0.008-0.016-0.025-0.025-0.049
		c-0.008-0.022-0.014-0.043-0.021-0.06c0-0.016,0-0.033,0-0.053s0-0.039,0-0.056l0.84-3.124c0-0.017,0.006-0.037,0.019-0.06
		c0.01-0.025,0.025-0.049,0.041-0.072c0.008-0.017,0.023-0.037,0.043-0.062c0.018-0.022,0.037-0.043,0.054-0.059
		c0.016-0.008,0.036-0.025,0.059-0.049c0.024-0.023,0.044-0.039,0.061-0.047c0.015-0.008,0.036-0.016,0.061-0.024
		c0.024-0.008,0.042-0.012,0.06-0.012h0.19h1.167c0.025,0,0.047,0.004,0.066,0.012c0.021,0.008,0.034,0.017,0.042,0.024
		c0.025,0.008,0.043,0.021,0.059,0.037c0.017,0.014,0.03,0.026,0.038,0.035c0.008,0.017,0.019,0.035,0.029,0.056
		c0.012,0.018,0.018,0.037,0.018,0.053c0.008,0.016,0.01,0.037,0.007,0.06C148.146,47.888,148.144,47.909,148.144,47.925z
		 M169.337,51.097l0.95-3.532h2.32l0.191-0.727l0.133-0.5h-0.133h-2.189l0.374-1.371h-2.946l-0.371,1.371h-1.227l-0.192,0.726
		l-0.132,0.501h0.132h1.117l-0.925,3.461c-0.008,0.032-0.018,0.071-0.031,0.121c-0.01,0.047-0.021,0.088-0.029,0.119
		c-0.008,0.041-0.012,0.08-0.012,0.115c0,0.037-0.005,0.074-0.013,0.115c0,0.047,0.002,0.099,0.007,0.15
		c0.003,0.052,0.01,0.103,0.018,0.15c0.008,0.049,0.021,0.096,0.035,0.146c0.017,0.047,0.029,0.09,0.036,0.131
		c0.017,0.041,0.038,0.076,0.061,0.109c0.024,0.031,0.054,0.064,0.084,0.097c0.024,0.031,0.05,0.063,0.078,0.096
		c0.029,0.031,0.06,0.06,0.09,0.084c0.049,0.031,0.101,0.062,0.155,0.088c0.058,0.028,0.118,0.051,0.181,0.067
		c0.066,0.017,0.136,0.027,0.211,0.035c0.077,0.008,0.154,0.012,0.234,0.012h3.847l0.337-1.227h-2.116
		c-0.072,0-0.131-0.01-0.181-0.035c-0.016-0.008-0.033-0.019-0.047-0.031c-0.017-0.012-0.028-0.024-0.038-0.041
		c-0.008-0.008-0.014-0.024-0.018-0.049c-0.003-0.022-0.01-0.043-0.016-0.06c0.006-0.016,0.01-0.037,0.01-0.059
		C169.324,51.134,169.328,51.113,169.337,51.097z M175.853,50.184h1.514h3.377l0.613-2.249c0.017-0.072,0.033-0.146,0.05-0.222
		s0.026-0.146,0.034-0.211c0.008-0.047,0.013-0.097,0.013-0.15c0-0.051,0-0.098,0-0.137c0-0.041-0.007-0.084-0.019-0.133
		c-0.01-0.047-0.021-0.088-0.028-0.119c-0.017-0.049-0.037-0.096-0.062-0.146c-0.022-0.047-0.051-0.09-0.084-0.131
		c-0.023-0.033-0.054-0.065-0.091-0.103c-0.035-0.035-0.074-0.065-0.113-0.09c-0.057-0.031-0.116-0.058-0.18-0.078
		c-0.064-0.021-0.126-0.037-0.181-0.053c-0.064-0.008-0.129-0.017-0.199-0.025c-0.068-0.008-0.138-0.012-0.21-0.012h-2.921h-1.946
		c-0.05,0-0.104,0.004-0.162,0.012c-0.062,0.008-0.119,0.017-0.175,0.025c-0.058,0.008-0.114,0.02-0.174,0.034
		c-0.062,0.017-0.115,0.033-0.162,0.049c-0.059,0.017-0.115,0.04-0.175,0.072c-0.062,0.033-0.115,0.063-0.162,0.096
		c-0.049,0.031-0.097,0.072-0.146,0.119c-0.047,0.049-0.096,0.096-0.143,0.146c-0.033,0.039-0.07,0.088-0.115,0.144
		c-0.043,0.055-0.082,0.113-0.113,0.168c-0.031,0.055-0.064,0.117-0.096,0.18c-0.033,0.064-0.063,0.129-0.097,0.193
		c-0.008,0.039-0.021,0.082-0.043,0.125c-0.019,0.045-0.037,0.086-0.053,0.127c-0.009,0.039-0.021,0.084-0.038,0.131
		c-0.014,0.049-0.031,0.096-0.047,0.146l-0.721,2.713l-0.036,0.135c-0.008,0.049-0.017,0.099-0.024,0.15
		c-0.009,0.053-0.021,0.103-0.035,0.152c-0.008,0.039-0.015,0.082-0.019,0.125c-0.004,0.045-0.01,0.086-0.018,0.127
		c0,0.056,0,0.113,0,0.175c0,0.06,0,0.113,0,0.162c0,0.047,0.003,0.094,0.011,0.137c0.01,0.045,0.021,0.082,0.036,0.115
		c0.016,0.047,0.036,0.096,0.062,0.144c0.008,0.017,0.015,0.033,0.023,0.047c0.015,0.028,0.032,0.052,0.048,0.074
		c0.024,0.031,0.055,0.063,0.097,0.096c0.038,0.031,0.079,0.055,0.119,0.072c0.048,0.025,0.1,0.047,0.158,0.072
		c0.055,0.024,0.11,0.041,0.168,0.047c0.056,0.008,0.115,0.014,0.178,0.019c0.066,0.004,0.126,0.006,0.181,0.006h3.619h2.429
		l0.337-1.237h-2.766h-1.286c-0.032,0-0.063-0.004-0.097-0.012c-0.03-0.008-0.059-0.021-0.084-0.037
		c-0.024-0.008-0.049-0.027-0.078-0.053c-0.028-0.029-0.049-0.056-0.064-0.078c-0.018-0.025-0.036-0.053-0.057-0.084
		c-0.018-0.033-0.028-0.066-0.028-0.096c-0.008-0.033-0.013-0.064-0.013-0.097c0-0.033,0.005-0.063,0.013-0.097L175.853,50.184z
		 M176.466,47.948c0.006-0.039,0.03-0.084,0.071-0.131c0.018-0.016,0.033-0.037,0.054-0.06c0.021-0.024,0.039-0.045,0.053-0.062
		c0.018-0.008,0.038-0.021,0.062-0.035c0.023-0.017,0.048-0.033,0.072-0.049c0.017-0.008,0.033-0.017,0.054-0.024
		c0.021-0.006,0.042-0.011,0.065-0.011h0.47h0.925c0.018,0,0.036,0.004,0.057,0.011c0.018,0.008,0.036,0.017,0.052,0.024
		c0.018,0.017,0.033,0.033,0.049,0.049c0.016,0.014,0.028,0.031,0.036,0.047c0.008,0.016,0.018,0.037,0.025,0.059
		c0.008,0.025,0.014,0.049,0.021,0.074c0,0.014,0,0.035,0,0.059c0,0.025-0.003,0.043-0.009,0.06l-0.266,0.997h-0.891H176.2
		L176.466,47.948z M111.987,44.079l-0.799,1.125l-5.306,7.47h1.442l1.658-2.284h2.207h1.292l0.277,2.284h3.223l-0.975-8.594H111.987
		z M111.188,48.947h-1.185l1.185-1.752l0.799-1.182l0.386,2.934H111.188z M184.038,46.387c-0.065,0.014-0.13,0.03-0.192,0.047
		c-0.064,0.017-0.126,0.033-0.182,0.047c-0.048,0.017-0.099,0.035-0.149,0.056c-0.053,0.02-0.102,0.041-0.152,0.065
		c-0.039,0.024-0.083,0.049-0.131,0.078c-0.048,0.029-0.096,0.058-0.143,0.09c-0.041,0.025-0.083,0.054-0.128,0.09
		c-0.044,0.037-0.081,0.07-0.114,0.103c-0.031,0.031-0.068,0.07-0.107,0.113c-0.041,0.045-0.075,0.083-0.108,0.115
		c-0.033,0.041-0.062,0.084-0.091,0.133c-0.028,0.047-0.057,0.094-0.09,0.144c-0.016,0.039-0.034,0.086-0.054,0.137
		c-0.021,0.053-0.039,0.107-0.055,0.162l-0.456,1.685c-0.008,0.039-0.017,0.08-0.024,0.119c-0.009,0.042-0.017,0.076-0.024,0.109
		s-0.013,0.066-0.013,0.103c0,0.035,0,0.07,0,0.103c0,0.031,0.005,0.068,0.013,0.107c0.008,0.041,0.016,0.076,0.024,0.108
		c0,0.033,0.008,0.064,0.024,0.097c0.014,0.033,0.031,0.06,0.047,0.084c0.018,0.033,0.036,0.062,0.054,0.091
		c0.021,0.028,0.047,0.053,0.08,0.078c0.022,0.024,0.049,0.047,0.078,0.072c0.027,0.024,0.058,0.041,0.09,0.049
		c0.048,0.022,0.099,0.045,0.156,0.065c0.056,0.021,0.111,0.033,0.168,0.041c0.056,0.008,0.11,0.014,0.169,0.019
		c0.055,0.004,0.108,0.006,0.155,0.006h2.851c0.014,0,0.033,0.002,0.052,0.006c0.021,0.004,0.036,0.01,0.044,0.019
		c0.006,0,0.021,0.006,0.041,0.019c0.021,0.01,0.034,0.021,0.043,0.029c0.006,0.008,0.017,0.021,0.029,0.037
		c0.012,0.017,0.018,0.027,0.018,0.035c0.008,0.017,0.013,0.033,0.013,0.049s-0.005,0.026-0.013,0.035l-0.084,0.349
		c-0.008,0.017-0.017,0.035-0.024,0.056c-0.008,0.019-0.018,0.033-0.035,0.041c-0.008,0.016-0.021,0.031-0.036,0.043
		c-0.018,0.013-0.033,0.021-0.047,0.029c-0.018,0.016-0.036,0.029-0.057,0.037c-0.018,0.008-0.036,0.017-0.052,0.025
		c-0.018,0.008-0.038,0.012-0.061,0.016c-0.024,0.004-0.042,0.006-0.05,0.006h-4.133l-0.302,1.143h5.578
		c0.047,0,0.103-0.002,0.162-0.006c0.06-0.004,0.123-0.015,0.186-0.031c0.057-0.006,0.116-0.019,0.181-0.035
		c0.064-0.016,0.123-0.037,0.182-0.059c0.047-0.017,0.094-0.039,0.143-0.068c0.048-0.027,0.098-0.054,0.145-0.078
		c0.041-0.023,0.084-0.05,0.133-0.078c0.047-0.029,0.093-0.058,0.132-0.09c0.033-0.031,0.069-0.066,0.115-0.103
		c0.042-0.035,0.081-0.074,0.112-0.113c0.032-0.033,0.069-0.07,0.109-0.115c0.041-0.043,0.071-0.086,0.096-0.125
		c0.024-0.049,0.052-0.099,0.084-0.152c0.033-0.051,0.06-0.103,0.084-0.15c0.025-0.047,0.048-0.1,0.066-0.156
		c0.021-0.056,0.038-0.113,0.056-0.168l0.383-1.479c0.024-0.063,0.041-0.123,0.05-0.181c0.006-0.055,0.014-0.106,0.021-0.156
		c0.009-0.047,0.011-0.096,0.006-0.144c-0.003-0.049-0.006-0.092-0.006-0.133c0-0.04-0.006-0.082-0.016-0.125
		c-0.013-0.045-0.022-0.082-0.031-0.115c-0.016-0.031-0.033-0.066-0.049-0.103c-0.015-0.035-0.03-0.065-0.048-0.09
		c-0.024-0.031-0.05-0.061-0.083-0.09c-0.033-0.026-0.06-0.053-0.085-0.078c-0.033-0.023-0.065-0.045-0.103-0.066
		c-0.034-0.021-0.073-0.037-0.114-0.053c-0.031-0.008-0.071-0.019-0.113-0.031c-0.046-0.012-0.087-0.022-0.127-0.031
		c-0.04-0.006-0.084-0.012-0.132-0.017c-0.049-0.004-0.092-0.006-0.133-0.006h-2.848c-0.008,0-0.022-0.002-0.043-0.006
		c-0.021-0.004-0.042-0.006-0.065-0.006c-0.009,0-0.021-0.004-0.038-0.013c-0.014-0.008-0.03-0.017-0.047-0.024
		c-0.008-0.008-0.018-0.017-0.03-0.029s-0.021-0.022-0.028-0.031c-0.017-0.008-0.025-0.019-0.025-0.031c0-0.01,0-0.025,0-0.041
		l0.097-0.349c0-0.008,0.006-0.021,0.019-0.037c0.01-0.015,0.023-0.031,0.041-0.047c0.008-0.008,0.021-0.019,0.036-0.031
		c0.018-0.012,0.031-0.02,0.047-0.029c0.018-0.008,0.038-0.016,0.061-0.024c0.024-0.008,0.045-0.017,0.062-0.024
		c0.017,0,0.03-0.002,0.047-0.006c0.017-0.004,0.029-0.006,0.037-0.006h3.881l0.302-1.165h-5.182
		C184.282,46.35,184.165,46.362,184.038,46.387z M166.38,46.35h-0.132h-1.612c-0.024,0-0.049,0.002-0.078,0.006
		c-0.029,0.004-0.054,0.01-0.078,0.018c-0.024,0-0.054,0.004-0.084,0.013c-0.033,0.006-0.06,0.014-0.083,0.022
		c-0.025,0.008-0.051,0.021-0.079,0.037c-0.029,0.017-0.06,0.029-0.09,0.035c-0.024,0.017-0.051,0.033-0.078,0.049
		c-0.028,0.017-0.055,0.028-0.078,0.035c-0.017,0.008-0.038,0.021-0.062,0.037c-0.023,0.017-0.048,0.029-0.072,0.037
		c-0.016,0.014-0.033,0.03-0.054,0.047c-0.021,0.016-0.039,0.029-0.055,0.037c-0.039,0.022-0.078,0.051-0.113,0.084
		c-0.038,0.031-0.065,0.063-0.09,0.094l0.144-0.564h-2.922l-1.604,5.998l-0.09,0.338h0.09h2.832l1.021-3.81
		c0.008-0.033,0.021-0.068,0.038-0.103c0.014-0.037,0.034-0.07,0.06-0.103c0.008-0.025,0.024-0.049,0.047-0.078
		c0.025-0.028,0.054-0.053,0.084-0.078c0.025-0.025,0.049-0.049,0.072-0.072c0.024-0.024,0.049-0.045,0.073-0.062
		c0.022-0.008,0.051-0.018,0.084-0.035c0.031-0.016,0.059-0.033,0.084-0.049c0.055-0.022,0.114-0.047,0.18-0.072
		c0.063-0.025,0.131-0.043,0.204-0.06c0.063-0.008,0.134-0.018,0.211-0.031c0.075-0.012,0.149-0.019,0.222-0.019h1.538l0.338-1.26
		L166.38,46.35z M129.91,51.097l0.95-3.532h2.32l0.175-0.664l0.149-0.563h-0.149h-2.171l0.374-1.371h-2.946l-0.372,1.371h-1.227
		l-0.24,0.909l-0.084,0.318h0.084h1.166l-0.925,3.461c-0.008,0.032-0.019,0.071-0.031,0.121c-0.01,0.047-0.021,0.088-0.029,0.119
		c-0.008,0.041-0.012,0.08-0.012,0.115c0,0.037-0.004,0.074-0.013,0.115c0,0.047,0.002,0.099,0.006,0.15
		c0.004,0.052,0.01,0.103,0.019,0.15c0.008,0.049,0.021,0.096,0.035,0.146c0.017,0.047,0.029,0.09,0.037,0.131
		c0.016,0.041,0.037,0.076,0.06,0.109c0.024,0.031,0.053,0.064,0.084,0.097c0.024,0.031,0.051,0.063,0.078,0.096
		c0.028,0.031,0.059,0.06,0.091,0.084c0.048,0.031,0.1,0.062,0.155,0.088c0.058,0.028,0.117,0.051,0.18,0.067
		c0.066,0.017,0.135,0.027,0.212,0.035c0.075,0.008,0.153,0.012,0.233,0.012h3.847l0.336-1.227h-2.115
		c-0.072,0-0.132-0.01-0.181-0.035c-0.017-0.008-0.033-0.019-0.047-0.031c-0.017-0.012-0.029-0.024-0.037-0.041
		c-0.008-0.008-0.014-0.024-0.019-0.049c-0.003-0.022-0.01-0.043-0.016-0.06c0.006-0.016,0.009-0.037,0.009-0.059
		C129.896,51.134,129.901,51.113,129.91,51.097z M126.857,46.337h-0.084h-2.837l-1.274,4.784c-0.008,0.017-0.018,0.037-0.031,0.06
		c-0.01,0.024-0.024,0.045-0.041,0.062c-0.017,0.016-0.035,0.033-0.053,0.053c-0.021,0.021-0.039,0.035-0.055,0.043
		c-0.017,0.014-0.035,0.028-0.06,0.041c-0.025,0.013-0.052,0.023-0.084,0.031c-0.016,0.008-0.037,0.014-0.06,0.019
		c-0.024,0.004-0.045,0.004-0.062,0.004h-1.309c-0.025,0-0.047,0-0.068-0.004c-0.018-0.004-0.037-0.015-0.053-0.031
		c-0.017-0.008-0.035-0.019-0.054-0.031c-0.021-0.012-0.039-0.024-0.055-0.041c-0.008-0.008-0.016-0.024-0.022-0.049
		c-0.008-0.022-0.017-0.047-0.024-0.072c-0.008-0.016-0.013-0.035-0.013-0.059c0-0.025,0.004-0.045,0.013-0.06l1.274-4.761h-2.885
		l-1.189,4.435c-0.033,0.113-0.054,0.23-0.062,0.349c-0.008,0.058-0.012,0.113-0.012,0.168c0,0.058,0,0.113,0,0.168
		c0,0.057,0.006,0.113,0.019,0.168c0.012,0.058,0.027,0.113,0.043,0.168c0.009,0.049,0.021,0.098,0.041,0.152
		c0.021,0.051,0.047,0.096,0.078,0.137c0.024,0.041,0.052,0.084,0.078,0.131c0.029,0.049,0.06,0.088,0.09,0.121
		c0.033,0.041,0.07,0.076,0.109,0.109c0.042,0.031,0.084,0.06,0.133,0.084c0.04,0.025,0.086,0.047,0.138,0.072
		c0.051,0.024,0.106,0.041,0.162,0.047c0.055,0.016,0.116,0.026,0.18,0.031c0.063,0.004,0.127,0.006,0.193,0.006h6.143l1.61-6.021
		L126.857,46.337z M142.001,48.044c0.016-0.055,0.029-0.115,0.037-0.174c0.008-0.06,0.021-0.113,0.038-0.162
		c0.014-0.047,0.024-0.097,0.029-0.144c0.003-0.05,0.005-0.093,0.005-0.134c0.008-0.072,0.008-0.139,0-0.203
		c-0.008-0.065-0.016-0.125-0.024-0.181c-0.015-0.049-0.03-0.098-0.041-0.149c-0.013-0.054-0.031-0.094-0.054-0.127
		c-0.024-0.033-0.054-0.068-0.084-0.108c-0.033-0.039-0.065-0.072-0.096-0.097c-0.019-0.018-0.043-0.037-0.069-0.056l-0.021-0.016
		c-0.038-0.022-0.078-0.039-0.128-0.047c-0.039-0.008-0.086-0.021-0.137-0.037c-0.054-0.017-0.103-0.027-0.149-0.035
		c-0.049-0.008-0.101-0.014-0.159-0.018c-0.055-0.004-0.11-0.006-0.168-0.006h-3.316h-1.708c-0.047,0-0.098,0.002-0.15,0.006
		c-0.051,0.004-0.102,0.01-0.149,0.018c-0.049,0.008-0.098,0.019-0.152,0.035c-0.051,0.016-0.104,0.028-0.162,0.037
		c-0.04,0.008-0.088,0.027-0.145,0.054c-0.055,0.028-0.108,0.055-0.155,0.078c-0.041,0.025-0.086,0.058-0.138,0.097
		c-0.053,0.041-0.099,0.08-0.14,0.121c-0.047,0.039-0.092,0.082-0.131,0.125c-0.041,0.045-0.079,0.094-0.121,0.152
		c-0.033,0.055-0.068,0.115-0.109,0.178c-0.039,0.066-0.076,0.129-0.107,0.193c-0.017,0.041-0.037,0.084-0.061,0.133
		c-0.023,0.047-0.039,0.095-0.047,0.144c-0.017,0.047-0.033,0.098-0.05,0.15c-0.014,0.053-0.031,0.106-0.046,0.162l-0.738,2.794
		l-0.069,0.26c-0.014,0.039-0.026,0.084-0.035,0.131c-0.008,0.047-0.016,0.088-0.024,0.122c-0.008,0.039-0.013,0.076-0.013,0.106
		c0,0.033,0,0.065,0,0.096c-0.008,0.063-0.01,0.123-0.005,0.175c0.004,0.053,0.01,0.103,0.018,0.149
		c0.008,0.049,0.02,0.097,0.037,0.146c0.017,0.047,0.027,0.088,0.035,0.119c0.015,0.036,0.033,0.068,0.057,0.101l0.011,0.015
		c0.026,0.037,0.057,0.069,0.088,0.103c0.025,0.031,0.056,0.062,0.09,0.09c0.037,0.027,0.077,0.054,0.115,0.078
		c0.05,0.025,0.101,0.047,0.156,0.072c0.057,0.024,0.113,0.041,0.168,0.047c0.057,0.016,0.117,0.026,0.181,0.031
		c0.063,0.004,0.125,0.006,0.18,0.006h3.318h1.622c0.058,0,0.115-0.002,0.175-0.006c0.062-0.004,0.123-0.01,0.187-0.019
		c0.056-0.008,0.115-0.019,0.175-0.035c0.059-0.016,0.119-0.033,0.174-0.049c0.039-0.008,0.086-0.024,0.137-0.053
		c0.054-0.029,0.098-0.054,0.139-0.078c0.04-0.024,0.082-0.053,0.125-0.084c0.046-0.033,0.083-0.064,0.114-0.097
		c0.04-0.033,0.081-0.068,0.122-0.109c0.039-0.039,0.076-0.084,0.106-0.131c0.041-0.049,0.078-0.099,0.115-0.152
		c0.034-0.052,0.065-0.105,0.089-0.162c0.025-0.047,0.048-0.097,0.073-0.15c0.024-0.051,0.047-0.107,0.071-0.162
		c0.017-0.047,0.036-0.104,0.056-0.168c0.018-0.063,0.037-0.125,0.054-0.18l0.543-2.023L142.001,48.044z M139.142,47.876
		c0,0.024-0.004,0.045-0.013,0.06l-0.841,3.127c0,0.016-0.005,0.034-0.018,0.059s-0.031,0.049-0.054,0.072
		c-0.008,0.017-0.022,0.037-0.043,0.062c-0.021,0.022-0.041,0.039-0.065,0.047c-0.017,0.016-0.039,0.033-0.066,0.047
		c-0.028,0.016-0.055,0.028-0.078,0.037c-0.025,0.017-0.047,0.027-0.068,0.031c-0.018,0.004-0.041,0.006-0.065,0.006h-0.167h-1.215
		c-0.039,0-0.08-0.012-0.119-0.037c-0.017-0.008-0.033-0.023-0.05-0.042c-0.014-0.02-0.027-0.039-0.035-0.055
		c-0.008-0.008-0.016-0.024-0.024-0.047c-0.008-0.025-0.016-0.049-0.025-0.072c-0.008-0.017-0.01-0.037-0.01-0.062
		c0-0.023,0.002-0.047,0.01-0.072l0.831-3.112c0.009-0.008,0.017-0.025,0.023-0.049c0.008-0.024,0.017-0.043,0.024-0.06
		c0-0.008,0.009-0.022,0.025-0.043c0.016-0.019,0.029-0.037,0.035-0.053c0.007-0.008,0.022-0.021,0.043-0.037
		c0.021-0.015,0.037-0.031,0.053-0.047c0.033-0.025,0.062-0.037,0.084-0.037h0.349h1.238c0.008,0,0.021,0.004,0.041,0.012
		c0.021,0.008,0.04,0.017,0.056,0.025c0.015,0.008,0.031,0.02,0.047,0.035c0.017,0.016,0.029,0.029,0.037,0.037
		c0.008,0.016,0.017,0.035,0.029,0.053c0.012,0.021,0.022,0.039,0.03,0.055C139.142,47.833,139.142,47.852,139.142,47.876z
		 M159.161,48.303c0.012-0.076,0.027-0.15,0.043-0.222c0.017-0.071,0.026-0.15,0.034-0.229c0.009-0.08,0.012-0.156,0.012-0.228
		c0-0.055,0-0.113,0-0.168c0-0.056-0.003-0.113-0.012-0.168c-0.008-0.047-0.016-0.099-0.027-0.15
		c-0.013-0.048-0.029-0.093-0.05-0.137l-0.006-0.013c-0.016-0.049-0.038-0.098-0.066-0.151c-0.028-0.051-0.057-0.099-0.09-0.138
		c-0.032-0.041-0.072-0.08-0.119-0.121c-0.049-0.039-0.096-0.071-0.145-0.096c-0.048-0.022-0.103-0.047-0.162-0.072
		c-0.061-0.022-0.119-0.043-0.175-0.06c-0.063-0.008-0.133-0.017-0.209-0.024c-0.079-0.008-0.156-0.013-0.236-0.013h-3.197h-2.332
		l-0.324,1.239h2.656h1.31c0.049,0,0.092,0.013,0.133,0.035c0.024,0.017,0.043,0.033,0.06,0.049
		c0.016,0.016,0.033,0.032,0.049,0.047c0.014,0.017,0.026,0.035,0.035,0.055c0.009,0.019,0.017,0.041,0.025,0.066
		c0.016,0.047,0.016,0.096,0,0.144c-0.008,0.017-0.018,0.037-0.031,0.062c-0.011,0.022-0.024,0.046-0.041,0.071
		c-0.016,0.022-0.034,0.047-0.055,0.072c-0.018,0.025-0.038,0.039-0.053,0.047c-0.033,0.024-0.064,0.051-0.096,0.078
		c-0.031,0.029-0.064,0.047-0.097,0.055c-0.022,0.017-0.053,0.026-0.09,0.035c-0.035,0.008-0.065,0.013-0.09,0.013h-1.058h-1.923
		c-0.136,0-0.27,0.012-0.396,0.037c-0.129,0.022-0.249,0.06-0.361,0.109c-0.064,0.022-0.128,0.055-0.193,0.094
		c-0.064,0.041-0.124,0.084-0.182,0.133c-0.047,0.039-0.096,0.086-0.15,0.138c-0.051,0.053-0.098,0.107-0.137,0.162
		c-0.033,0.049-0.067,0.104-0.108,0.168c-0.039,0.066-0.072,0.125-0.097,0.181c-0.03,0.063-0.061,0.127-0.09,0.187
		c-0.026,0.06-0.054,0.123-0.078,0.187c-0.016,0.063-0.034,0.129-0.059,0.199c-0.025,0.068-0.046,0.129-0.06,0.185
		c-0.017,0.058-0.036,0.117-0.056,0.181c-0.004,0.017-0.01,0.034-0.014,0.05c-0.012,0.047-0.021,0.089-0.027,0.131
		c-0.016,0.058-0.032,0.119-0.049,0.187c-0.016,0.068-0.031,0.133-0.046,0.199c-0.008,0.063-0.021,0.131-0.037,0.203
		c-0.017,0.072-0.027,0.142-0.036,0.205c-0.008,0.063-0.015,0.129-0.018,0.199c-0.005,0.068-0.007,0.134-0.007,0.197
		s0.004,0.127,0.013,0.187c0.008,0.06,0.021,0.115,0.035,0.162c0.016,0.049,0.034,0.097,0.055,0.144
		c0.021,0.049,0.041,0.088,0.066,0.121c0.017,0.021,0.033,0.041,0.051,0.058c0.016,0.016,0.033,0.031,0.05,0.045
		c0.036,0.028,0.074,0.053,0.114,0.078c0.048,0.025,0.096,0.045,0.145,0.065c0.047,0.021,0.101,0.035,0.156,0.043
		c0.104,0.023,0.228,0.035,0.373,0.035h2.68c0.057,0,0.115-0.006,0.175-0.019c0.062-0.01,0.114-0.021,0.162-0.029
		c0.016-0.005,0.032-0.009,0.048-0.015c0.04-0.014,0.08-0.031,0.12-0.05c0.057-0.029,0.108-0.064,0.158-0.103
		c0.015-0.008,0.035-0.024,0.061-0.049c0.024-0.022,0.042-0.043,0.058-0.06c0.017-0.008,0.038-0.024,0.061-0.047
		c0.024-0.025,0.044-0.049,0.062-0.074c0.008-0.006,0.02-0.022,0.04-0.047c0.021-0.025,0.04-0.043,0.056-0.06
		c0.005-0.008,0.018-0.025,0.035-0.049c0.016-0.022,0.024-0.047,0.024-0.072v0.673h2.573l1.105-4.134
		C159.132,48.448,159.149,48.378,159.161,48.303z M155.526,51.038c0,0.016-0.009,0.037-0.025,0.059
		c-0.016,0.025-0.033,0.05-0.047,0.074c-0.009,0.014-0.023,0.035-0.043,0.059c-0.021,0.025-0.037,0.04-0.054,0.047
		c-0.024,0.017-0.051,0.037-0.078,0.062c-0.029,0.022-0.06,0.039-0.09,0.047c-0.025,0.017-0.049,0.027-0.072,0.031
		c-0.024,0.004-0.045,0.006-0.062,0.006h-0.301h-0.864c-0.017,0-0.04-0.004-0.066-0.012c-0.028-0.008-0.051-0.021-0.067-0.037
		c-0.022-0.008-0.045-0.024-0.066-0.047c-0.021-0.024-0.037-0.045-0.054-0.062c-0.008-0.014-0.014-0.035-0.017-0.06
		c-0.005-0.024-0.01-0.047-0.02-0.072c0-0.017,0-0.037,0-0.06c0-0.024,0.005-0.045,0.013-0.061l0.24-0.901
		c0.008-0.025,0.021-0.051,0.038-0.084c0.016-0.033,0.034-0.064,0.06-0.097c0.016-0.025,0.039-0.049,0.065-0.078
		c0.029-0.029,0.056-0.054,0.078-0.078c0.033-0.025,0.068-0.047,0.103-0.066c0.037-0.021,0.07-0.039,0.103-0.055
		c0.025-0.008,0.054-0.017,0.09-0.029s0.069-0.019,0.103-0.019h0.264h1.153L155.526,51.038z"/>
</g>
</svg>
